<?xml version="1.0" standalone="no"?>
<!DOCTYPE svg PUBLIC "-//W3C//DTD SVG 20010904//EN"
 "http://www.w3.org/TR/2001/REC-SVG-20010904/DTD/svg10.dtd">
<svg version="1.0" xmlns="http://www.w3.org/2000/svg"
 width="455.000000pt" height="460.000000pt" viewBox="0 0 455.000000 460.000000"
 preserveAspectRatio="xMidYMid meet">

<g transform="translate(0.000000,460.000000) scale(0.100000,-0.100000)"
fill="#000000" stroke="none">
<path d="M2065 3716 c-16 -7 -47 -31 -67 -54 -68 -75 -74 -176 -15 -254 63
-82 154 -108 242 -69 63 28 83 46 106 96 37 80 18 185 -43 242 -53 50 -157 68
-223 39z"/>
<path d="M1754 3250 c-68 -44 -82 -148 -29 -212 15 -18 117 -124 226 -235
l198 -203 218 225 c238 245 254 268 234 342 -6 21 -25 52 -41 68 -28 27 -38
30 -96 30 l-64 0 -122 -122 c-68 -68 -127 -123 -131 -123 -4 0 -55 50 -114
111 -59 61 -120 117 -135 125 -39 20 -107 17 -144 -6z"/>
<path d="M1385 2880 c-62 -41 -84 -133 -45 -194 10 -17 69 -78 130 -135 l112
-104 -128 -128 c-123 -123 -127 -128 -131 -176 -9 -94 47 -153 145 -153 l52 0
193 184 c105 101 211 204 235 228 l43 45 -222 214 c-122 118 -231 219 -243
226 -33 19 -107 16 -141 -7z"/>
<path d="M2765 2882 c-16 -11 -127 -113 -245 -229 l-214 -209 189 -186 c275
-268 275 -268 340 -268 46 0 59 5 90 31 19 17 40 48 46 70 21 70 4 101 -131
234 l-121 118 124 126 c101 102 127 133 132 163 9 48 -8 97 -45 133 -39 37
-120 46 -165 17z"/>
<path d="M981 2624 c-78 -39 -106 -87 -106 -180 0 -64 3 -77 30 -115 44 -63
104 -91 181 -87 82 5 132 38 168 109 43 87 28 177 -40 241 -66 62 -149 73
-233 32z"/>
<path d="M3155 2638 c-82 -29 -135 -105 -135 -197 0 -213 281 -278 385 -90 86
157 -80 346 -250 287z"/>
<path d="M1934 2068 c-114 -117 -215 -226 -225 -243 -64 -103 36 -232 157
-205 29 7 64 35 161 132 l124 123 118 -121 c126 -132 157 -150 227 -134 92 21
141 137 90 211 -20 30 -428 449 -436 449 -4 0 -101 -96 -216 -212z"/>
<path d="M2096 1569 c-169 -40 -206 -275 -58 -370 43 -28 53 -30 119 -27 79 4
104 17 157 81 24 30 31 49 34 96 5 73 -9 118 -50 160 -56 58 -126 78 -202 60z"/>
</g>
</svg>
